<svg xmlns="http://www.w3.org/2000/svg" viewBox="-30 -10 560 530" width="96" height="96">
  <path fill="#ff7a59" d="M371.6 185.4V147c16.7-9.8 28-28 28-48.7 0-31.2-25.3-56.5-56.5-56.5s-56.5 25.3-56.5 56.5c0 20.7 11.2 38.9 28 48.7v38.4c-24.5 5.2-46.8 16.6-65.1 32.8l-148-115c1.2-5 1.9-10.2 1.9-15.5 0-35.3-28.7-64-64-64S-24 52.3-24 87.6s28.7 64 64 64c12.6 0 24.3-3.7 34.2-10l143.8 111.8c-12.8 22.9-20.2 49.2-20.2 77.2 0 88.4 71.6 160 160 160s160-71.6 160-160c0-78.6-56.6-144-131.2-157.2zm-28.4 261.6c-57.6 0-104.4-46.8-104.4-104.4s46.8-104.4 104.4-104.4 104.4 46.8 104.4 104.4-46.8 104.4-104.4 104.4z"/>
</svg>
